# Blender v3.5.0 OBJ File: ''
# www.blender.org
mtllib player.mtl
o Cube
v -0.899134 1.000000 -0.945289
v -0.899134 -1.000000 -0.945289
v 1.099799 1.000000 -0.879964
v 1.099799 -1.000000 -0.879964
v -0.948129 0.500000 0.553910
v -0.964460 -1.000000 1.053644
v 0.801030 0.660885 0.689759
v 1.034473 -1.000000 1.118969
v -2.255077 0.000000 -3.637159
v 1.034473 0.000000 1.118969
v 2.628602 0.000000 -3.477559
v -0.964460 0.000000 1.053644
v 1.034473 0.500000 1.118969
v -0.899134 0.500000 -0.945289
v 1.099799 0.500000 -0.879964
v -0.964460 0.500000 1.053644
v -0.899134 -0.500000 -0.945289
v 1.099799 -0.500000 -0.879964
v -0.964460 -0.500000 1.053644
v 1.034473 -0.500000 1.118969
v 0.035006 -1.000000 1.086306
v 0.100332 1.000000 -0.912626
v 0.051338 1.000000 0.586573
v 0.100332 -1.000000 -0.912626
v 0.078247 0.000000 -0.236821
v -0.019723 0.000000 2.760993
v 0.100332 0.500000 -0.912626
v 0.035006 0.500000 1.086306
v 0.035006 -0.500000 1.086306
v 0.100332 -0.500000 -0.912626
v 0.534740 -1.000000 1.102638
v 0.600065 1.000000 -0.896295
v 0.600065 0.000000 -0.896295
v 0.600065 0.500000 -0.896295
v 0.600065 -0.500000 -0.896295
v 0.600065 -1.000000 -0.896295
v 0.534740 0.000000 1.102638
v 0.534740 0.500000 1.102638
v 0.534740 -0.500000 1.102638
v -0.399401 -1.000000 -0.928958
v -0.464727 0.000000 1.069975
v -0.464727 0.500000 1.069975
v -0.464727 -0.500000 1.069975
v -0.464727 -1.000000 1.069975
v -0.399401 1.000000 -0.928958
v -0.399401 0.000000 -0.928958
v -0.399401 0.500000 -0.928958
v -0.399401 -0.500000 -0.928958
v -0.931797 -1.000000 0.054177
v 1.067136 1.000000 0.119503
v 1.067136 -1.000000 0.119503
v -0.931797 1.000000 0.054177
v -0.931797 0.000000 0.054177
v 1.067136 0.000000 0.119503
v -0.931797 0.500000 0.054177
v 1.067136 0.500000 0.119503
v 1.067136 -0.500000 0.119503
v -0.931797 -0.500000 0.054177
v 0.067669 -1.000000 0.086840
v 0.067669 1.939881 0.086840
v 0.567402 -1.000000 0.103171
v 0.567402 1.000000 0.103171
v -0.432064 1.000000 0.070509
v -0.432064 -1.000000 0.070509
v -0.948129 -1.000000 0.553910
v 1.050804 1.000000 0.619236
v 1.050804 0.000000 0.619236
v 1.050804 0.500000 0.619236
v 1.050804 -0.500000 0.619236
v 0.051338 -1.000000 0.586573
v 0.551071 -1.000000 0.602905
v -0.448395 -1.000000 0.570242
v 1.050804 -1.000000 0.619236
v -0.948129 1.000000 0.553910
v -0.948129 0.000000 0.553910
v -0.948129 -0.500000 0.553910
v 0.551071 1.000000 0.602905
v -0.448395 1.000000 0.570242
v 1.083467 -1.000000 -0.380230
v -0.915466 1.000000 -0.445556
v -0.915466 0.000000 -0.445556
v -0.915466 0.500000 -0.445556
v -0.915466 -0.500000 -0.445556
v 0.084001 1.939881 -0.412893
v 0.583734 1.000000 -0.396562
v -0.415732 1.000000 -0.429225
v -0.915466 -1.000000 -0.445556
v 1.083467 1.000000 -0.380230
v 1.083467 0.000000 -0.380230
v 1.083467 0.500000 -0.380230
v 1.083467 -0.500000 -0.380230
v 0.084001 -1.000000 -0.412893
v 0.583734 -1.000000 -0.396562
v -0.415732 -1.000000 -0.429225
vt 0.593937 0.171647
vt 0.555584 0.207742
vt 0.544894 0.175514
vt 0.518846 0.215006
vt 0.544894 0.261778
vt 0.692023 0.250177
vt 0.715018 0.199538
vt 0.741066 0.246310
vt 0.169395 0.417376
vt 0.213971 0.433909
vt 0.172549 0.464456
vt 0.604060 0.532258
vt 0.641208 0.610645
vt 0.597593 0.583318
vt 0.466750 0.185948
vt 0.405920 0.246453
vt 0.405920 0.185315
vt 0.345091 0.184681
vt 0.284262 0.245186
vt 0.284262 0.184048
vt 0.079142 0.367877
vt 0.165691 0.362079
vt 0.124268 0.392627
vt 0.665975 0.289669
vt 0.688970 0.325294
vt 0.639927 0.329161
vt 0.843730 0.527129
vt 0.792398 0.571463
vt 0.792398 0.514575
vt 0.322362 0.583499
vt 0.809851 0.902657
vt 0.741066 0.900024
vt 0.809851 0.596571
vt 0.715018 0.285802
vt 0.895062 0.539683
vt 0.843730 0.584017
vt 0.741066 0.558909
vt 0.741066 0.502021
vt 0.662922 0.364785
vt 0.613879 0.368652
vt 0.210818 0.386829
vt 0.223432 0.244553
vt 0.223432 0.183415
vt 0.041423 0.453721
vt 0.127972 0.447923
vt 0.086550 0.478471
vt 0.541841 0.336895
vt 0.564836 0.372519
vt 0.515793 0.376386
vt 0.567889 0.297403
vt 0.642980 0.254044
vt 0.704223 0.450278
vt 0.503897 0.579725
vt 0.553979 0.555992
vt 0.489848 0.634379
vt 0.082791 0.701624
vt 0.000000 0.721595
vt 0.030120 0.697338
vt 0.223432 0.868425
vt 0.301857 0.905485
vt 0.250987 0.910940
vt 0.516831 0.477605
vt 0.510364 0.528665
vt 0.131126 0.495004
vt 0.089703 0.525551
vt 0.593937 0.257911
vt 0.642980 0.167780
vt 0.518845 0.301270
vt 0.492798 0.340762
vt 0.466750 0.380253
vt 0.082846 0.423174
vt 0.591126 0.634379
vt 0.466750 0.900811
vt 0.535586 0.900811
vt 0.474912 0.896416
vt 0.560446 0.504931
vt 0.692023 0.163913
vt 0.741066 0.160046
vt 0.045127 0.509018
vt 0.048280 0.556098
vt 0.473217 0.450278
vt 0.466750 0.501339
vt 0.894454 0.606345
vt 0.809851 0.596570
vt 0.857821 0.618740
vt 0.647675 0.492917
vt 0.726265 0.456209
vt 0.726265 0.853146
vt 0.000000 0.484268
vt 0.590884 0.333028
vt 0.223432 0.627370
vt 0.287376 0.601882
vt 0.345364 0.803637
vt 0.339409 0.590604
vt 0.345364 0.583499
vt 0.054588 0.650258
vt 0.092857 0.572631
vt 0.096010 0.619711
vt 0.715018 0.113273
vt 0.639927 0.070368
vt 0.688970 0.066501
vt 0.665896 0.046773
vt 0.541841 0.078102
vt 0.639848 0.000000
vt 0.137433 0.589164
vt 0.175702 0.511537
vt 0.178856 0.558617
vt 0.466750 0.761546
vt 0.588969 0.696707
vt 0.588969 0.757845
vt 0.284262 0.061772
vt 0.223432 0.122277
vt 0.223432 0.061138
vt 0.792398 0.400799
vt 0.741066 0.445134
vt 0.741066 0.388246
vt 0.895062 0.425907
vt 0.843730 0.470241
vt 0.843730 0.413353
vt 0.405920 0.063038
vt 0.345091 0.123543
vt 0.345091 0.062405
vt 0.792398 0.457687
vt 0.284262 0.122910
vt 0.466750 0.063671
vt 0.405920 0.124176
vt 0.220279 0.528070
vt 0.946394 0.438460
vt 0.895062 0.482795
vt 0.567889 0.124875
vt 0.492798 0.081969
vt 0.223432 0.575150
vt 0.182010 0.605697
vt 0.345091 0.001266
vt 0.284262 0.000633
vt 0.405920 0.001900
vt 0.223432 0.000000
vt 0.140587 0.636244
vt 0.099164 0.666791
vt 0.057741 0.697338
vt 0.665975 0.117140
vt 0.466750 0.700408
vt 0.474624 0.634379
vt 0.946394 0.495348
vt 0.518846 0.128742
vt 0.466750 0.035196
vt 0.515793 0.031329
vt 0.946394 0.381572
vt 0.895062 0.369019
vt 0.792398 0.343911
vt 0.345364 0.642143
vt 0.408629 0.583499
vt 0.408629 1.000000
vt 0.741066 0.331358
vt 0.474624 0.817793
vt 0.466750 0.822685
vt 0.163983 0.704566
vt 0.082791 0.734852
vt 0.113334 0.697338
vt 0.613879 0.023595
vt 0.662922 0.019728
vt 0.051434 0.603178
vt 0.134280 0.542084
vt 0.466750 0.124809
vt 0.217125 0.480989
vt 0.647675 0.559585
vt 0.466750 0.247086
vt 0.223432 0.000000
vt 0.749390 0.895945
vt 0.895062 0.596570
vt 0.082791 0.914127
vt 0.301857 0.803637
vt 0.532538 0.822685
vt 0.894454 0.843875
vt 0.675951 0.450278
vt 0.229387 0.620265
vt 0.466750 0.639270
vt 0.946393 0.552236
vt 0.940636 0.000000
vt 0.361959 0.591243
vt 0.163983 0.832283
vn -0.0318 0.2259 0.9736
vn 0.5450 0.8383 0.0178
vn 0.0000 1.0000 0.0000
vn 0.0000 -1.0000 0.0000
vn 0.0327 0.0000 -0.9995
vn -0.9995 0.0000 -0.0327
vn -0.0327 0.0000 0.9995
vn 0.9995 0.0000 0.0327
vn -0.8511 0.3848 0.3572
vn -0.6122 0.6275 -0.4811
vn 0.6848 0.6919 0.2289
vn 0.6414 -0.6266 -0.4426
vn -0.0231 0.7071 0.7067
vn -0.0117 0.9342 0.3565
vn -0.6111 -0.6266 -0.4836
vn 0.6423 0.6275 -0.4401
vn -0.6982 0.6919 0.1837
vn 0.8824 0.4697 0.0288
vn -0.8824 0.4697 -0.0288
vn 0.6399 0.3521 0.6831
vn -0.6831 0.3521 0.6399
vn 0.8259 0.3848 0.4120
vn 0.2717 0.0000 0.9624
vn -0.4214 0.8165 0.3947
vn -0.8511 -0.3848 0.3572
vn -0.6122 -0.6275 -0.4811
vn 0.6848 -0.6919 0.2289
vn 0.6414 0.6266 -0.4426
vn 0.2965 0.8096 0.5067
vn -0.6111 0.6266 -0.4836
vn 0.6423 -0.6275 -0.4401
vn -0.6982 -0.6919 0.1837
vn 0.8259 -0.3848 0.4120
vn -0.6399 0.3521 -0.6831
vn 0.6831 0.3521 -0.6399
usemtl Material
s off
f 77/1/1 7/2/1 66/3/1
f 68/4/2 7/2/2 13/5/2
f 42/6/3 5/7/3 16/8/3
f 36/9/4 79/10/4 93/11/4
f 32/12/5 15/13/5 34/14/5
f 80/15/6 14/16/6 82/17/6
f 81/18/6 17/19/6 83/20/6
f 33/21/5 18/22/5 35/23/5
f 41/24/7 19/25/7 43/26/7
f 67/27/8 20/28/8 69/29/8
f 81/18/9 14/16/9 9/30/9
f 33/31/10 15/32/10 11/33/10
f 42/6/7 12/34/7 41/24/7
f 68/35/8 10/36/8 67/27/8
f 69/29/8 8/37/8 73/38/8
f 43/26/7 6/39/7 44/40/7
f 35/23/5 4/41/5 36/9/5
f 83/20/6 2/42/6 87/43/6
f 48/44/5 24/45/5 40/46/5
f 39/47/7 21/48/7 31/49/7
f 37/50/11 28/51/11 26/52/11
f 46/53/12 27/54/12 25/55/12
f 37/56/7 29/57/7 39/58/7
f 46/59/5 30/60/5 48/61/5
f 45/62/5 27/54/5 47/63/5
f 40/46/4 92/64/4 94/65/4
f 38/66/13 23/67/13 28/51/13
f 7/2/14 38/66/14 13/5/14
f 10/68/7 39/47/7 20/69/7
f 13/5/7 37/50/7 10/68/7
f 20/69/7 31/49/7 8/70/7
f 30/71/5 36/9/5 24/45/5
f 27/54/15 33/72/15 25/55/15
f 30/73/5 33/74/5 35/75/5
f 22/76/5 34/14/5 27/54/5
f 24/45/4 93/11/4 92/64/4
f 5/7/7 78/77/7 74/78/7
f 2/79/4 94/65/4 87/80/4
f 1/81/5 47/63/5 14/82/5
f 17/83/5 46/84/5 48/85/5
f 14/86/16 46/87/16 9/88/16
f 17/89/5 40/46/5 2/79/5
f 29/90/7 44/40/7 21/48/7
f 28/91/17 41/92/17 26/93/17
f 29/94/7 41/92/7 43/95/7
f 28/51/13 23/67/13 42/6/13
f 65/96/4 64/97/4 72/98/4
f 52/99/3 86/100/3 80/101/3
f 60/102/18 85/103/18 84/104/18
f 70/105/4 61/106/4 71/107/4
f 86/108/19 60/109/19 84/110/19
f 64/97/4 70/105/4 72/98/4
f 76/111/6 49/112/6 65/113/6
f 91/114/8 51/115/8 79/116/8
f 90/117/8 54/118/8 89/119/8
f 5/120/6 53/121/6 75/122/6
f 89/119/8 57/123/8 91/114/8
f 75/122/6 58/124/6 76/111/6
f 74/125/6 55/126/6 5/120/6
f 61/106/4 73/127/4 71/107/4
f 88/128/8 56/129/8 90/117/8
f 62/130/3 88/131/3 85/103/3
f 71/107/4 8/132/4 31/133/4
f 12/134/6 76/111/6 19/135/6
f 16/136/6 75/122/6 12/134/6
f 19/135/6 65/113/6 6/137/6
f 72/98/4 21/138/4 44/139/4
f 70/105/4 31/133/4 21/138/4
f 65/96/4 44/139/4 6/140/4
f 74/78/3 63/141/3 52/99/3
f 23/67/20 62/130/20 60/102/20
f 63/142/21 23/143/21 60/109/21
f 57/123/8 73/38/8 51/115/8
f 56/129/8 67/27/8 54/118/8
f 54/118/8 69/29/8 57/123/8
f 50/144/8 68/35/8 56/129/8
f 77/1/3 50/145/3 62/130/3
f 85/103/3 3/146/3 32/147/3
f 3/148/8 90/117/8 15/149/8
f 18/150/8 89/119/8 91/114/8
f 15/151/22 89/152/22 11/153/22
f 18/150/8 79/116/8 4/154/8
f 86/108/3 22/155/3 45/156/3
f 22/157/3 85/158/3 32/159/3
f 80/101/3 45/160/3 1/161/3
f 87/80/4 64/97/4 49/162/4
f 92/64/4 61/106/4 59/163/4
f 94/65/4 59/163/4 64/97/4
f 58/124/6 87/43/6 49/112/6
f 55/126/6 81/18/6 53/121/6
f 53/121/6 83/20/6 58/124/6
f 52/164/6 82/17/6 55/126/6
f 93/11/4 51/165/4 61/106/4
f 77/1/1 23/67/1 7/2/1
f 68/4/23 66/3/23 7/2/23
f 42/6/24 23/67/24 5/7/24
f 36/9/4 4/41/4 79/10/4
f 32/12/5 3/166/5 15/13/5
f 80/15/6 1/167/6 14/16/6
f 81/18/25 9/30/25 17/19/25
f 33/21/26 11/168/26 18/22/26
f 41/24/7 12/34/7 19/25/7
f 67/27/8 10/36/8 20/28/8
f 81/18/6 82/17/6 14/16/6
f 33/31/5 34/169/5 15/32/5
f 42/6/7 16/8/7 12/34/7
f 68/35/8 13/170/8 10/36/8
f 69/29/8 20/28/8 8/37/8
f 43/26/7 19/25/7 6/39/7
f 35/23/5 18/22/5 4/41/5
f 83/20/6 17/19/6 2/42/6
f 48/44/5 30/71/5 24/45/5
f 39/47/7 29/90/7 21/48/7
f 37/50/7 38/66/7 28/51/7
f 46/53/5 47/63/5 27/54/5
f 37/56/27 26/171/27 29/57/27
f 46/59/28 25/172/28 30/60/28
f 45/62/5 22/76/5 27/54/5
f 40/46/4 24/45/4 92/64/4
f 7/2/29 23/67/29 38/66/29
f 10/68/7 37/50/7 39/47/7
f 13/5/7 38/66/7 37/50/7
f 20/69/7 39/47/7 31/49/7
f 30/71/5 35/23/5 36/9/5
f 27/54/5 34/14/5 33/72/5
f 30/73/30 25/173/30 33/74/30
f 22/76/5 32/12/5 34/14/5
f 24/45/4 36/9/4 93/11/4
f 5/7/7 23/67/7 78/77/7
f 2/79/4 40/46/4 94/65/4
f 1/81/5 45/62/5 47/63/5
f 17/83/31 9/174/31 46/84/31
f 14/86/5 47/175/5 46/87/5
f 17/89/5 48/44/5 40/46/5
f 29/90/7 43/26/7 44/40/7
f 28/91/7 42/176/7 41/92/7
f 29/94/32 26/93/32 41/92/32
f 65/96/4 49/162/4 64/97/4
f 52/99/3 63/141/3 86/100/3
f 60/102/18 62/130/18 85/103/18
f 70/105/4 59/163/4 61/106/4
f 86/108/19 63/142/19 60/109/19
f 64/97/4 59/163/4 70/105/4
f 76/111/6 58/124/6 49/112/6
f 91/114/8 57/123/8 51/115/8
f 90/117/8 56/129/8 54/118/8
f 5/120/6 55/126/6 53/121/6
f 89/119/8 54/118/8 57/123/8
f 75/122/6 53/121/6 58/124/6
f 74/125/6 52/164/6 55/126/6
f 61/106/4 51/165/4 73/127/4
f 88/128/8 50/144/8 56/129/8
f 62/130/3 50/145/3 88/131/3
f 71/107/4 73/127/4 8/132/4
f 12/134/6 75/122/6 76/111/6
f 16/136/6 5/120/6 75/122/6
f 19/135/6 76/111/6 65/113/6
f 72/98/4 70/105/4 21/138/4
f 70/105/4 71/107/4 31/133/4
f 65/96/4 72/98/4 44/139/4
f 74/78/3 78/77/3 63/141/3
f 23/67/3 77/1/3 62/130/3
f 63/142/3 78/177/3 23/143/3
f 57/123/8 69/29/8 73/38/8
f 56/129/8 68/35/8 67/27/8
f 54/118/8 67/27/8 69/29/8
f 50/144/8 66/178/8 68/35/8
f 77/1/3 66/3/3 50/145/3
f 85/103/3 88/131/3 3/146/3
f 3/148/8 88/128/8 90/117/8
f 18/150/33 11/179/33 89/119/33
f 15/151/8 90/180/8 89/152/8
f 18/150/8 91/114/8 79/116/8
f 86/108/34 84/110/34 22/155/34
f 22/157/35 84/181/35 85/158/35
f 80/101/3 86/100/3 45/160/3
f 87/80/4 94/65/4 64/97/4
f 92/64/4 93/11/4 61/106/4
f 94/65/4 92/64/4 59/163/4
f 58/124/6 83/20/6 87/43/6
f 55/126/6 82/17/6 81/18/6
f 53/121/6 81/18/6 83/20/6
f 52/164/6 80/15/6 82/17/6
f 93/11/4 79/10/4 51/165/4
